<svg xmlns="http://www.w3.org/2000/svg" xmlns:xlink="http://www.w3.org/1999/xlink" width="420" height="249.99990844726562" viewBox="0 0 420 249.99990844726562" fill="none">
<rect x="0" y="0" width="0" height="0" fill="rgba(249, 249, 249, 1)" />
<ellipse  cx="320.09849643707275" cy="124.8455810546875" rx="99.90150356292725" ry="124.8455810546875"    fill="#FFFFFF" >
</ellipse>
<path fill-rule="evenodd"  fill="rgba(255, 53, 3, 1)"  d="M320.099 249.691C375.273 249.691 420 193.796 420 124.846C420 55.8953 375.273 0 320.099 0C264.924 0 220.197 55.8953 220.197 124.846C220.197 193.796 264.924 249.691 320.099 249.691ZM339.022 112.612Q340 118.586 340 124.846Q340 131.105 339.022 137.079Q338.106 142.669 336.372 147.794Q334.774 152.514 332.564 156.603Q330.597 160.241 328.276 163.141Q326.346 165.553 324.346 167.242Q322.892 168.47 321.6 169.153Q320.581 169.691 320.099 169.691Q319.616 169.691 318.597 169.153Q317.305 168.47 315.851 167.242Q313.851 165.553 311.921 163.141Q309.6 160.241 307.633 156.603Q305.423 152.514 303.825 147.794Q302.091 142.669 301.175 137.079Q300.197 131.105 300.197 124.846Q300.197 118.586 301.175 112.612Q302.091 107.022 303.825 101.897Q305.423 97.1768 307.633 93.0881Q309.6 89.45 311.921 86.5497Q313.851 84.138 315.851 82.4493Q317.306 81.2212 318.597 80.5385Q319.616 80 320.098 80Q320.581 80 321.6 80.5385Q322.891 81.2212 324.346 82.4493Q326.346 84.138 328.276 86.5497Q330.597 89.45 332.564 93.0881Q334.774 97.1768 336.372 101.897Q338.106 107.022 339.022 112.612Z">
</path>
<path   fill-rule="evenodd"  fill="#FFFFFF"  d="M0 249.691L199.803 0L199.803 249.691L154.212 249.691C163.816 226.152 159.002 204.105 140.242 195.738C116.351 185.085 78.8921 200.651 56.5742 230.507C51.8344 236.847 48.1587 243.322 45.5377 249.691L0 249.691Z">
</path>
<path fill-rule="evenodd"  fill="rgba(255, 53, 3, 1)"  d="M89.4355 201.946C107.152 192.321 126.081 189.423 140.242 195.738C147.058 198.778 152.033 203.624 155.145 209.691C160.597 220.323 160.327 234.704 154.212 249.691L199.803 249.691L199.803 0L62.793 171.22L32.008 209.691L11.2811 235.593L0 249.691L45.5377 249.691C48.1587 243.322 51.8344 236.847 56.5742 230.507C65.6631 218.348 77.2633 208.559 89.4355 201.946ZM128.956 152.558Q133.034 152.814 137.01 153.449Q147.313 155.094 156.534 159.206Q158.194 159.947 159.803 160.76L159.803 114.009L128.956 152.558Z">
</path>
<path d="M329.675 0.616429L329.675 249.075C326.389 249.482 323.056 249.691 319.685 249.691C316.313 249.691 312.98 249.482 309.695 249.075L309.695 0.616428C312.98 0.208735 316.313 0 319.685 0C323.056 0 326.389 0.208735 329.675 0.616429Z" fill-rule="evenodd"  fill="#FFFFFF" >
</path>
<path d="M319.685 0L219.783 0L219.783 250L319.685 250L319.685 0Z" fill-rule="evenodd"  fill="#FF3402" fill-opacity="0.5">
</path>
</svg>
